<svg width="33" height="178" viewBox="0 0 33 178" fill="none" xmlns="http://www.w3.org/2000/svg">
    <path d="M5.33002 4.65965e-07L0 0L-1.90844e-06 21.83L5.33002 21.83L5.33002 4.65965e-07Z" fill="#f73d93"
          fill-opacity="0.15"/>
    <path d="M18.8683 4.65965e-07L13.5383 0L13.5383 21.83L18.8683 21.83L18.8683 4.65965e-07Z" fill="#f73d93"
          fill-opacity="0.15"/>
    <path d="M32.4066 4.65962e-07L27.0767 0L27.0767 21.83L32.4066 21.83L32.4066 4.65962e-07Z" fill="#f73d93"
          fill-opacity="0.15"/>
    <path d="M5.33002 31.0854L0 31.0854L-1.90844e-06 52.9154L5.33002 52.9154L5.33002 31.0854Z" fill="#f73d93"
          fill-opacity="0.15"/>
    <path d="M18.8683 31.0854L13.5383 31.0854L13.5383 52.9154L18.8683 52.9154L18.8683 31.0854Z" fill="#f73d93"
          fill-opacity="0.15"/>
    <path d="M18.8683 62.171L13.5383 62.171L13.5383 84.001L18.8683 84.001L18.8683 62.171Z" fill="#f73d93"
          fill-opacity="0.15"/>
    <path d="M32.4066 62.171L27.0767 62.171L27.0767 84.001L32.4066 84.001L32.4066 62.171Z" fill="#f73d93"
          fill-opacity="0.15"/>
    <path d="M5.33002 93.2666L0 93.2666L-1.90844e-06 115.097L5.33002 115.097L5.33002 93.2666Z" fill="#f73d93"
          fill-opacity="0.15"/>
    <path d="M32.4066 93.2666L27.0767 93.2666L27.0767 115.097L32.4066 115.097L32.4066 93.2666Z" fill="#f73d93"
          fill-opacity="0.15"/>
    <path d="M5.33002 124.352L0 124.352L-1.90844e-06 146.182L5.33002 146.182L5.33002 124.352Z" fill="#f73d93"
          fill-opacity="0.15"/>
    <path d="M18.8683 124.352L13.5383 124.352L13.5383 146.182L18.8683 146.182L18.8683 124.352Z" fill="#f73d93"
          fill-opacity="0.15"/>
    <path d="M5.33002 155.438L0 155.438L-1.90844e-06 177.268L5.33002 177.268L5.33002 155.438Z" fill="#f73d93"
          fill-opacity="0.15"/>
    <path d="M18.8683 155.438L13.5383 155.438L13.5383 177.268L18.8683 177.268L18.8683 155.438Z" fill="#f73d93"
          fill-opacity="0.15"/>
    <path d="M32.4066 155.438L27.0767 155.438L27.0767 177.268L32.4066 177.268L32.4066 155.438Z" fill="#f73d93"
          fill-opacity="0.15"/>
</svg>
