<svg width="33" height="178" viewBox="0 0 33 178" fill="none" xmlns="http://www.w3.org/2000/svg">
    <path d="M27.0766 177.268H32.4066V155.438H27.0766L27.0766 177.268Z" fill="#f73d93" fill-opacity="0.15"/>
    <path d="M13.5383 177.268H18.8683L18.8683 155.438H13.5383L13.5383 177.268Z" fill="#f73d93" fill-opacity="0.15"/>
    <path d="M0 177.268H5.32999L5.32999 155.438H0L0 177.268Z" fill="#f73d93" fill-opacity="0.15"/>
    <path d="M27.0766 146.182H32.4066V124.352H27.0766L27.0766 146.182Z" fill="#f73d93" fill-opacity="0.15"/>
    <path d="M13.5383 146.182H18.8683L18.8683 124.352H13.5383L13.5383 146.182Z" fill="#f73d93" fill-opacity="0.15"/>
    <path d="M13.5383 115.097H18.8683L18.8683 93.2666H13.5383L13.5383 115.097Z" fill="#f73d93" fill-opacity="0.15"/>
    <path d="M0 115.097H5.32999L5.32999 93.2666H0L0 115.097Z" fill="#f73d93" fill-opacity="0.15"/>
    <path d="M27.0766 84.001H32.4066V62.171H27.0766L27.0766 84.001Z" fill="#f73d93" fill-opacity="0.15"/>
    <path d="M0 84.001H5.32999L5.32999 62.171H0L0 84.001Z" fill="#f73d93" fill-opacity="0.15"/>
    <path d="M27.0766 52.9156H32.4066V31.0856H27.0766L27.0766 52.9156Z" fill="#f73d93" fill-opacity="0.15"/>
    <path d="M13.5383 52.9156H18.8683L18.8683 31.0856H13.5383L13.5383 52.9156Z" fill="#f73d93" fill-opacity="0.15"/>
    <path d="M27.0766 21.83H32.4066V1.90735e-06H27.0766L27.0766 21.83Z" fill="#f73d93" fill-opacity="0.15"/>
    <path d="M13.5383 21.83H18.8683L18.8683 1.90735e-06H13.5383L13.5383 21.83Z" fill="#f73d93" fill-opacity="0.15"/>
    <path d="M0 21.83H5.32999L5.32999 1.90735e-06H0L0 21.83Z" fill="#f73d93" fill-opacity="0.15"/>
</svg>
