<svg
        id="close-icon"
        class="mobile-menu__close-icon"
        onclick="mobileMenuClose()"
        width="35"
        height="35"
        viewBox="0 0 35 35"
        fill="none"
        xmlns="http://www.w3.org/2000/svg"
>
    <path
            d="M1.83744 29.1626L12.5858 18.4142C13.3668 17.6332 13.3668 16.3668 12.5858 15.5858L3.102 6.102C2.25135 5.25135 2.33874 3.84765 3.28833 3.10908L4.60635 2.08395C5.40253 1.4647 6.53522 1.53522 7.24844 2.24844L16.0858 11.0858C16.8668 11.8668 18.1332 11.8668 18.9142 11.0858L27.7516 2.24844C28.4648 1.53522 29.5975 1.4647 30.3937 2.08395L31.7117 3.10908C32.6613 3.84765 32.7487 5.25135 31.898 6.102L22.4142 15.5858C21.6332 16.3668 21.6332 17.6332 22.4142 18.4142L33.1626 29.1626C33.3786 29.3786 33.5 29.6717 33.5 29.9772C33.5 30.3094 33.3566 30.6255 33.1066 30.8443L30.9081 32.7679C30.1157 33.4612 28.9215 33.4215 28.1769 32.6769L18.9142 23.4142C18.1332 22.6332 16.8668 22.6332 16.0858 23.4142L6.82307 32.6769C6.07854 33.4215 4.88426 33.4612 4.09185 32.7679L1.89344 30.8443C1.64341 30.6255 1.5 30.3094 1.5 29.9772C1.5 29.6717 1.62138 29.3786 1.83744 29.1626Z"
            stroke="#F73D93"
            stroke-width="2"
    />
</svg>